<svg xmlns="http://www.w3.org/2000/svg" enable-background="new 0 0 1500 1500" version="1.0" viewBox="0 0 1500 1500" width="550" height="550">
  <switch>
    <g>
    <path fill="#d1c6e2" fill-rule="evenodd" d="M477.3 1181.3c140.6 0 255.3-14.8 255.3-33s-114.7-32.9-255.3-32.9c-140.6 0-255.3 14.8-255.3 32.9S336.6 1181.3 477.3 1181.3zM1045.4 1158.2c79.1 0 143.7-8.3 143.7-18.5 0-10.2-64.5-18.5-143.7-18.5-79.1 0-143.7 8.3-143.7 18.5C901.7 1149.8 966.2 1158.2 1045.4 1158.2zM1205 1038.7c39.3 0 71.3-5.9 71.3-13.1s-32-13.1-71.3-13.1c-39.2 0-71.3 5.9-71.3 13.1S1165.7 1038.7 1205 1038.7z" clip-rule="evenodd" class="colord1c6e2 svgShape">
    </path>
    <path fill="#ede4f1" fill-rule="evenodd" d="M607.6,387.7c83.3,16.3,151.6,120.6,234.3,129.9c156.4,17.5,322.8-100.7,402.4,14.3
				c139.7,201.8-55.3,385.2-322.9,505.4c-267.6,120.2-573.5,110.8-633.2-126.2c-46.8-186-50.4-330.5,79.5-442.2
				C425.3,419.3,487.8,364.3,607.6,387.7z" clip-rule="evenodd" class="colorede4f1 svgShape">
    </path>
    <path fill="#d1c6e2" fill-rule="evenodd" d="M1126.5,549.9l-10.6,6.2c-3.6,2.1-4.8,6.7-2.7,10.3l2.3,4c2.8,4.7,1.6,6.9,0.7,7.6c-2.4,2.1-4.5,4.4-6.8,6.7
				c-0.6,0.7-2.7,3-8.1-0.2l-3.7-2.2c-3.6-2.1-8.2-0.8-10.3,2.7l-6.2,10.6c-2.1,3.6-0.9,8.2,2.7,10.3l3.7,2.1c5,2.9,4.9,4.5,4.3,6.6
				c-0.9,2.9-1.8,5.9-2.5,8.9c-0.6,2.7-0.3,4.7-7.2,4.7h-4.2c-4.1,0-7.5,3.4-7.5,7.5v12.3c0,4.2,3.4,7.5,7.5,7.5h4.2
				c6.9,0,6.6,1.9,7.2,4.7c0.7,3,1.6,6,2.5,8.9c0.6,2.1,0.8,3.6-4.3,6.6l-3.7,2.1c-3.6,2.1-4.8,6.7-2.7,10.3l6.2,10.6
				c2.1,3.6,6.7,4.8,10.3,2.7l3.7-2.2c5.4-3.1,7.4-0.8,8.1-0.2c2.2,2.3,4.4,4.6,6.8,6.7c0.9,0.8,2.1,2.9-0.7,7.7l-2.3,4
				c-2.1,3.6-0.8,8.2,2.7,10.3l10.6,6.2c3.6,2.1,8.2,0.9,10.3-2.7l2.3-4c2.8-4.8,5.6-4.6,6.7-4.2c3.4,1.1,6.5,1.8,10,2.7
				c1.3,0.3,3.5,1.3,3.5,7v4.3c0,4.1,3.4,7.5,7.5,7.5h12.3c4.1,0,7.5-3.4,7.5-7.5v-4.3c0-5.7,2.2-6.7,3.5-7c3.5-0.9,6.6-1.6,10-2.7
				c1.2-0.4,3.9-0.6,6.7,4.2l2.3,4c2.1,3.6,6.7,4.8,10.3,2.7l10.6-6.2c3.6-2.1,4.8-6.7,2.7-10.3l-2.3-4c-2.8-4.7-1.6-6.9-0.7-7.7
				c2.4-2.1,4.6-4.4,6.8-6.7c0.7-0.7,2.7-3,8.1,0.2l3.7,2.2c3.6,2.1,8.2,0.9,10.3-2.7l6.2-10.6c2.1-3.6,0.8-8.2-2.7-10.3l-3.7-2.1
				c-5-2.9-4.9-4.5-4.3-6.6c0.9-3,1.8-5.9,2.5-8.9c0.6-2.7,0.3-4.7,7.2-4.7h4.2c4.2,0,7.5-3.4,7.5-7.5v-12.3c0-4.1-3.4-7.5-7.5-7.5
				h-4.2c-6.9,0-6.6-1.9-7.2-4.7c-0.6-3-1.6-6-2.5-8.9c-0.6-2.2-0.8-3.7,4.3-6.6l3.7-2.1c3.6-2.1,4.8-6.7,2.7-10.3l-6.2-10.6
				c-2.1-3.6-6.7-4.8-10.3-2.7l-3.7,2.2c-5.4,3.1-7.4,0.8-8.1,0.2c-2.2-2.3-4.4-4.6-6.8-6.7c-0.8-0.8-2.1-2.9,0.7-7.6l2.3-4
				c2.1-3.6,0.9-8.2-2.7-10.3l-10.6-6.2c-3.6-2.1-8.2-0.9-10.3,2.7l-2.3,4c-2.8,4.8-5.6,4.6-6.7,4.3c-3.4-1.1-6.5-1.8-10-2.7
				c-1.3-0.3-3.5-1.3-3.5-7v-4.3c0-4.2-3.4-7.5-7.5-7.5h-12.3c-4.2,0-7.5,3.4-7.5,7.5v4.3c0,5.7-2.2,6.7-3.5,7
				c-3.5,0.9-6.6,1.6-10,2.7c-1.2,0.4-3.9,0.6-6.7-4.3l-2.3-4C1134.7,549,1130.1,547.8,1126.5,549.9L1126.5,549.9z M1172.9,581.8
				c33.2,0,60.2,26.9,60.2,60.2c0,33.2-26.9,60.2-60.2,60.2s-60.2-26.9-60.2-60.2C1112.8,608.7,1139.7,581.8,1172.9,581.8z" clip-rule="evenodd" class="colord1c6e2 svgShape">
    </path>
    <path fill="#ede4f1" fill-rule="evenodd" d="M1087.3 456.3c-2.8.7-5.6-.9-6.4-3.7-.7-2.8.9-5.6 3.7-6.4 56.9-15.1 108.5-9.1 154.8 18 2.5 1.5 3.3 4.6 1.9 7.1s-4.6 3.3-7.1 1.9C1190.4 447.7 1141.5 442 1087.3 456.3L1087.3 456.3zM1120.9 469.9c14.7-.7 28.6-.5 41.7.9 13 1.4 25.2 4 36.7 8.2 2.7 1 5.7-.4 6.7-3.1 1-2.7-.4-5.7-3.1-6.7-12.3-4.5-25.4-7.3-39.2-8.7-13.7-1.4-28.1-1.6-43.3-.9-2.8.1-5.1 2.6-4.9 5.4C1115.6 467.9 1118 470.1 1120.9 469.9zM253.6 928.5c-.5-2.8-3.2-4.8-6-4.3-2.8.5-4.7 3.2-4.3 6 10 58 37 102.4 80.9 133.2 2.3 1.6 5.6 1.1 7.2-1.3 1.6-2.4 1.1-5.6-1.3-7.2C288.7 1025.8 263.1 983.7 253.6 928.5L253.6 928.5zM279.9 953.3c5.5 13.6 11.4 26.2 18.2 37.5 6.7 11.2 14.1 21.3 22.7 30 2 2.1 2 5.3 0 7.3-2 2-5.3 2-7.3 0-9.2-9.3-17.2-20-24.3-32-7-11.8-13.2-24.9-18.9-39-1.1-2.7.2-5.7 2.9-6.8C275.9 949.4 278.9 950.7 279.9 953.3z" clip-rule="evenodd" class="colorede4f1 svgShape">
    </path>
    <path fill="#d1c6e2" fill-rule="evenodd" d="M444.5,356.5l-13.8,8c-4.6,2.7-6.2,8.7-3.5,13.3l3,5.2c3.6,6.2,2,8.9,0.9,9.9c-3.1,2.7-5.9,5.7-8.8,8.7
				c-0.8,0.9-3.5,3.9-10.5-0.2l-4.8-2.8c-4.6-2.7-10.6-1.1-13.3,3.5l-8,13.7c-2.7,4.6-1.1,10.6,3.5,13.3l4.7,2.7
				c6.5,3.8,6.4,5.8,5.6,8.5c-1.1,3.8-2.4,7.6-3.2,11.6c-0.7,3.5-0.4,6-9.3,6h-5.5c-5.4,0-9.8,4.4-9.8,9.8v15.9
				c0,5.4,4.4,9.7,9.8,9.7h5.5c8.9,0,8.6,2.5,9.3,6c0.8,3.9,2.1,7.8,3.2,11.6c0.8,2.8,1,4.7-5.6,8.5l-4.7,2.8
				c-4.6,2.7-6.2,8.7-3.5,13.3l8,13.7c2.7,4.6,8.7,6.2,13.3,3.5l4.8-2.8c7-4.1,9.6-1.1,10.5-0.2c2.8,3,5.7,5.9,8.8,8.7
				c1.1,1,2.7,3.8-0.9,9.9l-3,5.2c-2.7,4.7-1.1,10.6,3.5,13.3l13.8,8c4.6,2.7,10.6,1.1,13.3-3.5l3-5.2c3.6-6.2,7.2-6,8.7-5.5
				c4.4,1.4,8.4,2.3,13,3.5c1.7,0.4,4.5,1.6,4.5,9.1v5.6c0,5.4,4.4,9.7,9.8,9.7h15.9c5.4,0,9.8-4.4,9.8-9.7v-5.6
				c0-7.4,2.8-8.6,4.5-9.1c4.5-1.2,8.6-2.1,13-3.5c1.5-0.5,5.1-0.7,8.7,5.5l3,5.2c2.7,4.7,8.7,6.2,13.3,3.5l13.8-8
				c4.6-2.7,6.2-8.7,3.5-13.3l-3-5.2c-3.6-6.2-2-8.9-0.9-9.9c3.1-2.7,5.9-5.7,8.8-8.7c0.8-0.9,3.5-3.8,10.5,0.2l4.8,2.8
				c4.6,2.7,10.6,1.1,13.3-3.5l8-13.7c2.7-4.6,1.1-10.6-3.5-13.3l-4.7-2.8c-6.5-3.8-6.4-5.8-5.6-8.5c1.1-3.8,2.4-7.6,3.2-11.6
				c0.7-3.5,0.4-6,9.3-6h5.5c5.4,0,9.7-4.4,9.7-9.7v-15.9c0-5.4-4.4-9.8-9.7-9.8h-5.5c-8.9,0-8.6-2.5-9.3-6
				c-0.8-3.9-2.1-7.8-3.2-11.6c-0.8-2.8-1-4.7,5.6-8.5l4.7-2.7c4.6-2.7,6.2-8.7,3.5-13.3l-8-13.7c-2.7-4.7-8.7-6.2-13.3-3.5
				l-4.8,2.8c-7,4.1-9.6,1.1-10.5,0.2c-2.8-3-5.7-5.9-8.8-8.7c-1.1-1-2.7-3.8,0.9-9.9l3-5.2c2.7-4.6,1.1-10.6-3.5-13.3l-13.8-8
				c-4.6-2.7-10.6-1.1-13.3,3.5l-3,5.2c-3.6,6.3-7.2,6-8.7,5.5c-4.4-1.4-8.4-2.3-13-3.5c-1.6-0.4-4.5-1.6-4.5-9.1v-5.6
				c0-5.4-4.4-9.8-9.8-9.8h-15.9c-5.4,0-9.8,4.4-9.8,9.8v5.6c0,7.4-2.8,8.7-4.5,9.1c-4.5,1.2-8.6,2.1-13,3.5
				c-1.5,0.5-5.1,0.7-8.7-5.5l-3-5.2C455.1,355.4,449.2,353.8,444.5,356.5L444.5,356.5z M504.7,413.4c34.5,0,62.4,28,62.4,62.4
				c0,34.5-27.9,62.4-62.4,62.4c-34.5,0-62.4-28-62.4-62.4C442.3,441.4,470.3,413.4,504.7,413.4L504.7,413.4z M504.7,397.8
				c43.1,0,78,34.9,78,78c0,43.1-34.9,78-78,78c-43.1,0-78-34.9-78-78C426.7,432.8,461.7,397.8,504.7,397.8z" clip-rule="evenodd" class="colord1c6e2 svgShape">
    </path>
    <path fill="#1b2452" fill-rule="evenodd" d="M1190.3,901.8c0.2-0.8-0.3-1.7-1.1-1.9c-0.8-0.2-1.7,0.3-1.9,1.2c-2.6,11-2.7,22.4,0.1,34.1
				c2.8,11.7,8.5,23.9,17.8,36.5c0.5,0.7,1.5,0.8,2.2,0.3c0.7-0.5,0.8-1.5,0.3-2.2c-9-12.3-14.6-24.1-17.3-35.4
				C1187.7,923.3,1187.9,912.4,1190.3,901.8z" clip-rule="evenodd" class="color1b2452 svgShape">
    </path>
				<path fill="#c2b5d9" fill-rule="evenodd" d="M1188.5,903.6c13.9-31.7,13.1-61.6-2.4-89.9C1221.5,843.1,1222.3,873,1188.5,903.6z" clip-rule="evenodd" class="colorc2b5d9 svgShape">
  </path>
  <path fill="#9588c0" fill-rule="evenodd" d="M1186.1,813.7c15.6,28.2,16.4,58.2,2.4,89.9C1156.5,879,1196.5,852.3,1186.1,813.7z" clip-rule="evenodd" class="color9588c0 svgShape">
  </path>
  <path fill="#1b2452" fill-rule="evenodd" d="M1207.3,942.9c0.1-0.8-0.6-1.6-1.4-1.7c-0.8-0.1-1.6,0.5-1.7,1.4c-0.3,3.7-0.4,9.1-0.1,15.3
				c0.3,5.3,0.8,11.2,1.7,17c0.1,0.8,0.9,1.4,1.8,1.3c0.8-0.1,1.4-0.9,1.3-1.8c-0.9-5.7-1.4-11.5-1.7-16.7
				C1206.8,951.7,1206.9,946.5,1207.3,942.9z" clip-rule="evenodd" class="color1b2452 svgShape">
    </path>
				<path fill="#9588c0" fill-rule="evenodd" d="M1205.4,945.8c-14.7-26.8-4.1-52.1,31.9-76C1218.2,897.4,1207.6,922.7,1205.4,945.8z" clip-rule="evenodd" class="color9588c0 svgShape">
				</path>
    <path fill="#5a53a2" fill-rule="evenodd" d="M1205.4,945.8c2.2-23.1,12.8-48.4,31.9-76C1226,907.4,1250.5,921.3,1205.4,945.8z" clip-rule="evenodd" class="color5a53a2 svgShape">
    </path>
    <path fill="#1b2452" fill-rule="evenodd" d="M1206.2,973.5c0,0.9,0.7,1.6,1.5,1.6c0.9,0,1.6-0.6,1.6-1.5c0.1-3.9,1-7.9,2.2-11.5
				c1.9-5.7,4.5-10.3,5.7-12.3c0.4-0.7,0.2-1.7-0.5-2.1c-0.7-0.4-1.7-0.2-2.1,0.5c-1.3,2.1-4,7-6,13
				C1207.3,964.9,1206.3,969.2,1206.2,973.5z" clip-rule="evenodd" class="color1b2452 svgShape">
    </path>
    <path fill="#9588c0" fill-rule="evenodd" d="M1248.5,952.7c-9.3,21.4-29.2-4.6-36.3-0.3c2.1-4.8,5.1-8.3,8.5-10C1230.5,937.2,1238.6,955.1,1248.5,952.7z
				" clip-rule="evenodd" class="color9588c0 svgShape">
    </path>
    <path fill="#3f4979" fill-rule="evenodd" d="M1160.1,967.3v27.9c0,17.6,14.4,32,32,32h25.3c17.6,0,32-14.4,32-32v-27.9H1160.1z" clip-rule="evenodd" class="color3f4979 svgShape">
    </path>
    <path fill="#1b2452" fill-rule="evenodd" d="M1169.2,1017.4c43.7,14,64.7-5.3,60.5-50.2h19.8v27.9c0,17.6-14.4,32-32,32h-25.3
				C1183.2,1027.2,1175,1023.4,1169.2,1017.4z" clip-rule="evenodd" class="color1b2452 svgShape">
    </path>
    <path fill="#2b2870" fill-rule="evenodd" d="M639.2,317.8h305.4c25.2,0,45.8,20.6,45.8,45.7v661.9c0,25.2-20.6,45.7-45.8,45.7H639.2
				c-25.2,0-45.8-20.6-45.8-45.7V363.5C593.5,338.4,614,317.8,639.2,317.8z" clip-rule="evenodd" class="color2b2870 svgShape">
    </path>
    <path fill="#f3ebf4" fill-rule="evenodd" d="M639.2,324.3h305.4c21.6,0,39.2,17.6,39.2,39.2v661.9c0,21.6-17.7,39.2-39.2,39.2H639.2
				c-21.6,0-39.2-17.7-39.2-39.2V363.5C600,341.9,617.6,324.3,639.2,324.3z" clip-rule="evenodd" class="colorf3ebf4 svgShape">
    </path>
    <path fill="#d0c3e0" fill-rule="evenodd" d="M639.2,340.4h61.5c3,9.1,11.6,15.7,21.6,15.7h139c10.1,0,18.7-6.6,21.7-15.7h61.5
				c12.7,0,23.1,10.4,23.1,23.1v661.9c0,12.7-10.4,23.1-23.1,23.1H639.2c-12.7,0-23.1-10.4-23.1-23.1V363.5
				C616.1,350.8,626.5,340.4,639.2,340.4z" clip-rule="evenodd" class="colord0c3e0 svgShape">
    </path>
    <path fill="#c2b5d9" fill-rule="evenodd" d="M731,334.2h121.8c3.4,0,6.2,2.8,6.2,6.2l0,0c0,3.4-2.8,6.2-6.2,6.2H731c-3.4,0-6.2-2.8-6.2-6.2l0,0
				C724.8,337,727.6,334.2,731,334.2z" clip-rule="evenodd" class="colorc2b5d9 svgShape">
    </path>
<path fill="#9588c0" fill-rule="evenodd" d="M647.3,395.2h127.9c3.3,0,6.1,2.7,6.1,6.1v64.5c-36.2,4.7-64.9,33.4-69.6,69.6h-64.4c-3.3,0-6.1-2.7-6.1-6.1
				V401.3C641.2,397.9,644,395.2,647.3,395.2z" clip-rule="evenodd" class="color9588c0 svgShape">
</path>
<path fill="#5a53a2" fill-rule="evenodd" d="M808.6 395.2h127.9c3.3 0 6.1 2.7 6.1 6.1v127.9c0 3.3-2.7 6.1-6.1 6.1H872c-4.7-36.2-33.4-64.8-69.6-69.6v-64.5C802.5 397.9 805.2 395.2 808.6 395.2zM641.2 690.4V562.5c0-3.3 2.7-6.1 6.1-6.1h64.4c4.7 36.2 33.4 64.9 69.6 69.6v64.5c0 3.3-2.7 6.1-6.1 6.1H647.3C644 696.5 641.2 693.8 641.2 690.4z" clip-rule="evenodd" class="color5a53a2 svgShape">
</path>
<path fill="#9588c0" fill-rule="evenodd" d="M936.5,696.5H808.6c-3.4,0-6.1-2.7-6.1-6.1V626c36.2-4.7,64.8-33.4,69.6-69.6h64.4c3.3,0,6.1,2.7,6.1,6.1
				v127.9C942.6,693.8,939.8,696.5,936.5,696.5z" clip-rule="evenodd" class="color9588c0 svgShape">
</path>
<path fill="#8071b3" fill-rule="evenodd" d="M791.9,471.8c40.9,0,74,33.1,74,74c0,40.9-33.2,74-74,74c-40.9,0-74-33.1-74-74
				C717.9,505,751,471.8,791.9,471.8L791.9,471.8z M791.9,482.9c-34.8,0-63,28.2-63,63c0,34.8,28.2,63,63,63c34.8,0,63-28.2,63-63
				C854.9,511.1,826.7,482.9,791.9,482.9z" clip-rule="evenodd" class="color8071b3 svgShape">
</path>
<path fill="#5a53a2" fill-rule="evenodd" d="M798,524.2c-2-2.4-4-4.6-6.1-6.7c-2,2.1-4,4.3-6.1,6.7C789.9,524,793.9,524,798,524.2L798,524.2z
				 M803.3,524.5c-2.8-3.5-5.7-6.8-8.6-9.7c2.7-2.5,5.3-4.7,7.8-6.5c7.7-5.5,14.4-7.7,18.2-5.1c3.8,2.6,4.3,9.5,2.1,18.8
				c-0.4,1.7-0.9,3.5-1.5,5.3C815.8,526,809.8,525,803.3,524.5L803.3,524.5z M815.1,541.8c1.9-3.7,3.5-7.4,4.8-10.8
				c-4.1-1-8.6-1.7-13.4-2.2C809.6,532.9,812.5,537.3,815.1,541.8L815.1,541.8z M817.3,545.9c2.6-4.8,4.7-9.5,6.4-13.9
				c1.9,0.5,3.6,1.1,5.3,1.7c8.9,3.3,14.4,7.6,14.4,12.2c0,4.6-5.5,8.9-14.4,12.2c-1.7,0.6-3.4,1.2-5.3,1.7
				C822.1,555.4,819.9,550.7,817.3,545.9L817.3,545.9z M825,563.5c0.6,1.9,1.1,3.7,1.6,5.4c2.6,10.8,1.6,19.3-3.7,22.9
				c-5.3,3.6-13.6,1.3-22.6-5.2c-2.7-1.9-5.5-4.3-8.3-6.9c-2.8,2.7-5.6,5-8.3,6.9c-8.8,6.3-16.8,8.6-22.1,5.5h0l-0.5-0.3
				c-5.3-3.6-6.3-12.1-3.7-22.9c0.4-1.7,0.9-3.6,1.6-5.4c-1.9-0.5-3.7-1.1-5.4-1.8c-10.5-3.9-16.9-9.5-16.9-15.9
				c0-6.4,6.5-12,16.9-15.9c1.7-0.6,3.5-1.2,5.4-1.7c-0.6-1.9-1.1-3.7-1.6-5.4c-2.6-10.8-1.6-19.3,3.7-22.9
				c5.3-3.6,13.6-1.3,22.6,5.2c2.7,1.9,5.5,4.3,8.3,7c2.8-2.7,5.6-5,8.3-7c9.1-6.5,17.3-8.7,22.6-5.2c5.3,3.6,6.3,12.1,3.7,22.9
				c-0.4,1.7-1,3.6-1.6,5.4c1.9,0.5,3.7,1.1,5.4,1.7c10.5,3.9,16.9,9.5,16.9,15.9c0,6.4-6.5,12-16.9,15.9
				C828.7,562.4,826.9,562.9,825,563.5L825,563.5z M789.1,577c-2.9-2.9-5.8-6.2-8.6-9.7c-6.5-0.5-12.6-1.5-18-2.7
				c-0.6,1.8-1.1,3.6-1.5,5.3c-2.2,9.2-1.7,16.2,2.1,18.7l0,0c3.8,2.5,10.5,0.4,18.2-5.1C783.8,581.6,786.5,579.5,789.1,577
				L789.1,577z M777.3,563c-3.1-4.2-6-8.6-8.6-13.1c-1.9,3.7-3.5,7.4-4.9,10.9C768,561.7,772.5,562.5,777.3,563L777.3,563z
				 M766.4,545.9c-2.6-4.8-4.7-9.5-6.4-13.9c-1.9,0.5-3.6,1.1-5.3,1.7c-8.9,3.3-14.4,7.6-14.4,12.2c0,4.6,5.5,8.9,14.4,12.2
				c1.6,0.6,3.4,1.2,5.3,1.7C761.7,555.4,763.9,550.7,766.4,545.9L766.4,545.9z M822.8,569.8c-0.4-1.7-0.9-3.5-1.5-5.3
				c-5.4,1.3-11.5,2.2-18,2.7c-2.8,3.6-5.7,6.8-8.6,9.7c2.7,2.5,5.3,4.7,7.8,6.5c7.7,5.5,14.4,7.7,18.2,5.1
				C824.5,586,825,579,822.8,569.8L822.8,569.8z M819.9,560.8c-1.3-3.5-2.9-7.1-4.8-10.9c-2.6,4.5-5.5,8.9-8.6,13.1
				C811.3,562.5,815.8,561.7,819.9,560.8L819.9,560.8z M812.9,545.9c-3.4,6.1-7.4,12.1-11.6,17.6c-6.2,0.4-12.5,0.4-18.7,0
				c-4.3-5.6-8.2-11.5-11.6-17.6c3.4-6.1,7.3-12,11.6-17.6c6.2-0.4,12.5-0.4,18.7,0C805.6,533.8,809.5,539.7,812.9,545.9
				L812.9,545.9z M789.1,514.8c-2.9,2.9-5.8,6.2-8.6,9.7c-6.5,0.5-12.6,1.5-18,2.8c-0.6-1.8-1.1-3.6-1.5-5.3
				c-2.2-9.2-1.7-16.2,2.1-18.8c3.8-2.6,10.5-0.4,18.2,5.1C783.8,510.1,786.5,512.3,789.1,514.8L789.1,514.8z M763.9,531
				c1.3,3.5,3,7.1,4.9,10.8c2.6-4.5,5.5-8.9,8.6-13.1C772.5,529.2,768,530,763.9,531L763.9,531z M785.8,567.5c2,2.4,4,4.6,6.1,6.7
				c2-2.1,4.1-4.3,6.1-6.7C793.9,567.7,789.9,567.7,785.8,567.5z" clip-rule="evenodd" class="color5a53a2 svgShape">
</path>
<path fill="#5a53a2" fill-rule="evenodd" d="M791.9,556.3c5.8,0,10.5-4.7,10.5-10.5c0-5.8-4.7-10.5-10.5-10.5c-5.8,0-10.5,4.7-10.5,10.5
				C781.4,551.6,786.1,556.3,791.9,556.3z" clip-rule="evenodd" class="color5a53a2 svgShape">
</path>
<path fill="#9588c0" fill-rule="evenodd" d="M655.1,737v4.9h-4.9h-0.3h0l-0.2,0h0c-0.3,0-0.7,0.1-0.9,0.2l-1.7-4.6c1-0.4,2.1-0.6,3.1-0.6H655.1
				L655.1,737z M642.2,742c-0.6,1.2-0.9,2.6-0.9,4v1.9h4.9v-1.9l0-0.3v0l0-0.2v0c0.1-0.5,0.2-0.9,0.4-1.3L642.2,742L642.2,742z
				 M641.2,752.7h4.9v4.9h-4.9V752.7L641.2,752.7z M641.2,762.5h4.9v4.9h-4.9V762.5L641.2,762.5z M641.2,772.3h4.9v4.9h-4.9V772.3
				L641.2,772.3z M641.2,782h4.9v4.9h-4.9V782L641.2,782z M641.2,791.8h4.9v4.9h-4.9V791.8L641.2,791.8z M641.2,801.6h4.9v4.9h-4.9
				V801.6L641.2,801.6z M641.2,811.4h4.9v4.9h-4.9V811.4L641.2,811.4z M641.2,821.1h4.9v4.9h-4.9V821.1L641.2,821.1z M641.2,830.9
				h4.9v4.9h-4.9V830.9L641.2,830.9z M641.2,840.7h4.9v4.9h-4.9V840.7L641.2,840.7z M641.2,850.4h4.9v4.9h-4.9V850.4L641.2,850.4z
				 M643,861.4c1.4,1.9,3.3,3.1,5.6,3.5l0.9-4.8c-0.4-0.1-0.8-0.2-1.2-0.4c-0.2-0.1-0.4-0.2-0.6-0.4c-0.2-0.2-0.4-0.4-0.6-0.6
				l-0.1-0.1L643,861.4L643,861.4z M653.9,865v-4.9h4.9v4.9H653.9L653.9,865z M663.6,865v-4.9h4.9v4.9H663.6L663.6,865z M673.4,865
				v-4.9h4.9v4.9H673.4L673.4,865z M683.2,865v-4.9h4.9v4.9H683.2L683.2,865z M692.9,865v-4.9h4.9v4.9H692.9L692.9,865z M702.7,865
				v-4.9h4.9v4.9H702.7L702.7,865z M712.5,865v-4.9h4.9v4.9H712.5L712.5,865z M722.2,865v-4.9h4.9v4.9H722.2L722.2,865z M732,865
				v-4.9h4.9v4.9H732L732,865z M741.8,865v-4.9h4.9v4.9H741.8L741.8,865z M751.6,865v-4.9h4.9v4.9H751.6L751.6,865z M761.3,865v-4.9
				h4.9v4.9H761.3L761.3,865z M771.5,864.9c2.3-0.4,4.2-1.6,5.6-3.5l-3.9-2.9l0,0l-0.1,0.1c-0.2,0.2-0.4,0.4-0.6,0.6
				c-0.2,0.1-0.4,0.3-0.6,0.4c-0.4,0.2-0.8,0.4-1.2,0.4L771.5,864.9L771.5,864.9z M778.9,855.4H774v-4.9h4.9V855.4L778.9,855.4z
				 M778.9,845.6H774v-4.9h4.9V845.6L778.9,845.6z M778.9,835.8H774V831h4.9V835.8L778.9,835.8z M778.9,826.1H774v-4.9h4.9V826.1
				L778.9,826.1z M778.9,816.3H774v-4.9h4.9V816.3L778.9,816.3z M778.9,806.5H774v-4.9h4.9V806.5L778.9,806.5z M778.9,796.8H774
				v-4.9h4.9V796.8L778.9,796.8z M778.9,787H774v-4.9h4.9V787L778.9,787z M778.9,777.2H774v-4.9h4.9V777.2L778.9,777.2z
				 M778.9,767.4H774v-4.9h4.9V767.4L778.9,767.4z M778.9,757.7H774v-4.9h4.9V757.7L778.9,757.7z M778.9,747.9H774v-1.9l0-0.3v0
				l0-0.2v0c-0.1-0.5-0.2-0.8-0.4-1.3l4.4-2.1c0.6,1.2,0.9,2.5,0.9,3.9V747.9L778.9,747.9z M773.1,737.6c-0.7-0.4-2.3-0.6-3.2-0.6
				h-2.5v4.9h2.5h0.3h0l0.2,0h0c0.3,0.1,0.7,0.1,1,0.2L773.1,737.6L773.1,737.6z M762.5,737v4.9h-4.9V737H762.5L762.5,737z
				 M752.8,737v4.9h-4.9V737H752.8L752.8,737z M743,737v4.9h-4.9V737H743L743,737z M733.2,737v4.9h-4.9V737H733.2L733.2,737z
				 M723.5,737v4.9h-4.9V737H723.5L723.5,737z M713.7,737v4.9h-4.9V737H713.7L713.7,737z M703.9,737v4.9H699V737H703.9L703.9,737z
				 M694.1,737v4.9h-4.9V737H694.1L694.1,737z M684.4,737v4.9h-4.9V737H684.4L684.4,737z M674.6,737v4.9h-4.9V737H674.6L674.6,737z
				 M664.8,737v4.9h-4.9V737H664.8z" clip-rule="evenodd" class="color9588c0 svgShape">
</path>
<path fill="#b6a9d2" fill-rule="evenodd" d="M646.2,908.3h291.5c2.7,0,4.9,2.2,4.9,4.9v84c0,2.7-2.2,4.9-4.9,4.9H646.2c-2.7,0-4.9-2.2-4.9-4.9v-84
				C641.2,910.5,643.5,908.3,646.2,908.3z" clip-rule="evenodd" class="colorb6a9d2 svgShape">
</path>
<path fill="#9588c0" fill-rule="evenodd" d="M822.4,779.6h113.7c3.6,0,6.5,2.9,6.5,6.5l0,0c0,3.6-2.9,6.5-6.5,6.5H822.4c-3.6,0-6.5-2.9-6.5-6.5l0,0
				C815.9,782.5,818.8,779.6,822.4,779.6L822.4,779.6z M822.4,847.3h113.7c3.6,0,6.5,2.9,6.5,6.5l0,0c0,3.6-2.9,6.5-6.5,6.5H822.4
				c-3.6,0-6.5-2.9-6.5-6.5l0,0C815.9,850.2,818.8,847.3,822.4,847.3L822.4,847.3z M822.4,813.4h113.7c3.6,0,6.5,2.9,6.5,6.5l0,0
				c0,3.6-2.9,6.5-6.5,6.5H822.4c-3.6,0-6.5-2.9-6.5-6.5l0,0C815.9,816.4,818.8,813.4,822.4,813.4z" clip-rule="evenodd" class="color9588c0 svgShape">
</path>
</g>
</switch>
</svg>