<svg id="SvgjsSvg1230" width="550" height="550" xmlns="http://www.w3.org/2000/svg" version="1.1" xmlns:xlink="http://www.w3.org/1999/xlink" xmlns:svgjs="http://svgjs.com/svgjs">
  <defs id="SvgjsDefs1231">
  </defs>
  <g id="SvgjsG1232">
    <svg xmlns="http://www.w3.org/2000/svg" data-name="Layer 1" viewBox="0 0 570.44 500" width="550" height="550">

      <rect width="90.04" height="59.4" x="245.66" y="356.93" fill="#6b739b" class="color6b739b svgShape">
      </rect>
      <rect width="392.13" height="266.88" x="94.62" y="96.57" fill="#7d86ba" rx="5.35" class="color7d86ba svgShape">
      </rect>
      <rect width="381.39" height="239.15" x="99.75" y="106.17" fill="#ffffff" class="colorfff svgShape">
      </rect>
      <path fill="#7d86ba" d="M352.47,406.92H228.9a14.72,14.72,0,0,0-14.72,14.72V424h153v-2.33A14.72,14.72,0,0,0,352.47,406.92Z" class="color7d86ba svgShape">
      </path>
      <rect width="194.01" height="8.25" x="193.03" y="229.44" fill="#7d86ba" class="color7d86ba svgShape">
</rect>
        <ellipse cx="195.21" cy="233.56" fill="#f15a28" rx="26.62" ry="26.61" class="colorf15a28 svgShape">
        </ellipse>
        <path fill="#7d86ba" d="M195.21,262.2a28.64,28.64,0,1,1,28.66-28.64A28.67,28.67,0,0,1,195.21,262.2Zm0-53.21a24.57,24.57,0,1,0,24.59,24.57A24.61,24.61,0,0,0,195.21,209Z" class="color7d86ba svgShape">
        </path>
        <ellipse cx="387.04" cy="233.56" fill="#f15a28" rx="26.62" ry="26.61" class="colorf15a28 svgShape">
        </ellipse>
        <path fill="#7d86ba" d="M387 262.2a28.64 28.64 0 1128.66-28.64A28.68 28.68 0 01387 262.2zM387 209a24.57 24.57 0 1024.59 24.57A24.61 24.61 0 00387 209zM335.7 302H291.21A48.57 48.57 0 01247 273.36l-17.12-38.11 7.53-3.38L254.47 270a40.34 40.34 0 0036.74 23.76H335.7z" class="color7d86ba svgShape">
        </path>
        <ellipse cx="333.79" cy="297.88" fill="#f15a28" rx="26.62" ry="26.61" class="colorf15a28 svgShape">
        </ellipse>
        <path fill="#7d86ba" d="M333.79 326.52a28.65 28.65 0 1128.66-28.64A28.69 28.69 0 01333.79 326.52zm0-53.21a24.57 24.57 0 1024.59 24.57A24.61 24.61 0 00333.79 273.31zM348 234l-17.11-38.12a40.33 40.33 0 00-36.74-23.76H249.61V163.9H294.1a48.58 48.58 0 0144.26 28.63l17.12 38.12z" class="color7d86ba svgShape">
        </path>
        <ellipse cx="248.46" cy="158.94" fill="#f15a28" rx="26.62" ry="26.61" class="colorf15a28 svgShape">
        </ellipse>
        <path fill="#7d86ba" d="M248.46,187.58a28.65,28.65,0,1,1,28.66-28.64A28.68,28.68,0,0,1,248.46,187.58Zm0-53.21a24.57,24.57,0,1,0,24.59,24.57A24.61,24.61,0,0,0,248.46,134.37Z" class="color7d86ba svgShape">
        </path>
        <path fill="#34b7bf" d="M495.14,370.89a5.85,5.85,0,0,0-5.85-5.84H429.62a5.85,5.85,0,0,0-5.85,5.84v17.42a35.45,35.45,0,0,0,3.75,15.85c21.82-7,45.16-9.62,67.62-17.59Z" class="color34b7bf svgShape">
        </path>
        <path fill="#34b7bf" d="M427.52,404.16a35.67,35.67,0,0,0,67.62-15.85v-1.74C472.68,394.54,449.34,397.21,427.52,404.16Z" class="color34b7bf svgShape">
        </path>
        <ellipse cx="460.64" cy="369.4" fill="#313440" rx="31.48" ry="3.32" class="color313440 svgShape">
        </ellipse>
        <path fill="#8fa159" d="M457.75,310.48c.67-.89,10.42-28.58-1.33-31S439.8,287,438,300.07s2.88,29.68.66,30.35-5.32-8-11.3-3.33-.67,12.85,3.76,17.28,4.22,6.2,3.33,6.2-5.54-2.65-8.2,1.11-2.66,13.29,12.85,18.17c0,0,12.64,3.32,21.28-.22S457.75,310.48,457.75,310.48Z" class="color8fa159 svgShape">
        </path>
        <path fill="#b0c66b" d="M460.41,370.44c1.78,0,13.6,1.18,18.63-1.48s18.32-21.86,14.18-26.58-8-3.84-8-3.84,16-17.13,7.69-19.5S482,320.82,482,320.82s11.53-35.45-6.21-34.56-8,34.26-8,34.26-2.95-13.59-12.41-11.22-7.68,19.79-2.66,32.78c0,0-6.21-5.31-9.75,1.18S460.41,370.44,460.41,370.44Z" class="colorb0c66b svgShape">
        </path>
        <path fill="#313440" d="M471.72 359.49a.5.5 0 01-.33-.12.51.51 0 01-.05-.71c.08-.09 7.75-8.92 5.68-14.1a3.85 3.85 0 00-2.36-2.47c-2.26-.7-5.08 1.13-5.1 1.15a.52.52 0 01-.55 0 .51.51 0 01-.23-.49c0-.15 2.16-15.69-1.51-24.1a.5.5 0 01.92-.4c3.27 7.52 2.13 20 1.71 23.65a7.23 7.23 0 015.05-.76 4.79 4.79 0 013 3c2.3 5.76-5.52 14.76-5.86 15.14A.48.48 0 01471.72 359.49zM454.21 364.59a.48.48 0 01-.36-.16c-.6-.62-14.63-15.4-11.31-21.41a6.25 6.25 0 013.85-3.22c3.17-.88 6.38 1 6.52 1a.5.5 0 01-.5.86s-3-1.71-5.76-.94a5.33 5.33 0 00-3.24 2.74c-2.45 4.47 7.22 16.13 11.16 20.25a.5.5 0 01-.36.84zM476.15 316.07a.49.49 0 01-.39-.8c0-.07 4.93-6.43 4.11-9.73a2.11 2.11 0 00-1.26-1.47 3.1 3.1 0 00-2.72-.07c-2.56 1.15-3.9 5.47-3.92 5.52a.48.48 0 01-.62.33.5.5 0 01-.33-.62c.06-.2 1.5-4.81 4.46-6.14a4.15 4.15 0 013.54.07 3.08 3.08 0 011.82 2.14c.93 3.77-4.08 10.3-4.29 10.58A.5.5 0 01476.15 316.07zM439.58 341.11a.5.5 0 01-.47-.33c0-.11-1-2.77 1.88-5.62a4 4 0 012.88-1.27 4.55 4.55 0 013 1.52.5.5 0 01-.76.65 3.53 3.53 0 00-2.25-1.17 3 3 0 00-2.12 1c-2.38 2.38-1.68 4.49-1.65 4.58a.49.49 0 01-.3.63A.59.59 0 01439.58 341.11z" class="color313440 svgShape">
        </path>
        <path fill="#b0c66b" d="M496.1,339.72c3,3.17,13.75-10.63,8.87-12.18S492.11,335.51,496.1,339.72Z" class="colorb0c66b svgShape">
        </path>
        <path fill="#8fa159" d="M426.59,307.82c-4.18,1.28,3.43,17,7,13.35S432.14,306.12,426.59,307.82Z" class="color8fa159 svgShape">
        </path>
        <path fill="#b0c66b" d="M491,306.05c2.32,1.16,3.1-3.1,1.77-3.55S489.23,305.16,491,306.05Z" class="colorb0c66b svgShape">
        </path>
        <path fill="#8fa159" d="M425 323.77c2.32 1.16 3.1-3.1 1.77-3.54S423.17 322.88 425 323.77zM466.4 281.9c4.24.43 2.88-10.63.44-10.63S462 281.46 466.4 281.9zM423.17 345.92s-.44-6.86-6.2-5.76-1.55 14 3.1 13.07S423.17 345.92 423.17 345.92z" class="color8fa159 svgShape">
        </path>
        <path fill="#ffffff" d="M495.24,383.77c-.54-.07-1.07-.14-1.6-.19-3.88-.3-8.48,1.16-9.35,5.17a9.26,9.26,0,0,0,.36,4.28c.09.33.17.66.24,1,.23,1.12.11,2.1-.31,2.39s-1.8-.29-2.52-1.31a15.8,15.8,0,0,1-.94-1.54,10.94,10.94,0,0,0-2.81-3.63,6.7,6.7,0,0,0-10.1,3.35,9.58,9.58,0,0,0-.32,1.68,8.19,8.19,0,0,1-.2,1.12,3.24,3.24,0,0,1-2.86,2.27,3.33,3.33,0,0,1-3.06-2,9.14,9.14,0,0,1-.38-2.2,11.44,11.44,0,0,0-.55-3,7.13,7.13,0,0,0-11.1-2.73,11.75,11.75,0,0,0-2.46,3.68c-.24.48-.48,1-.75,1.43-.6,1-1.69,2-2.49,1.79s-1.48-1.86-2-3.28l-.13-.37a10.38,10.38,0,0,0-3.56-5.27,6.07,6.07,0,0,0-7.13-.14,8.12,8.12,0,0,0-1.57,1.77c-.16.22-.32.45-.5.66A4.67,4.67,0,0,1,425,390.1a5.63,5.63,0,0,1-1.11-.27v1.3c0,.79.06,1.57.12,2.35.19,0,.36.11.55.13a8.13,8.13,0,0,0,7.37-2.67c.24-.28.45-.57.66-.87a5.07,5.07,0,0,1,.88-1,2.57,2.57,0,0,1,2.87.23,7.05,7.05,0,0,1,2.28,3.55l.12.36c.71,2.05,1.68,4.86,4.46,5.56s5.22-1.4,6.41-3.42c.32-.54.6-1.1.88-1.67a8.8,8.8,0,0,1,1.67-2.63,3.28,3.28,0,0,1,3-.59,3.24,3.24,0,0,1,2.38,1.92,9.29,9.29,0,0,1,.35,2.13,11.36,11.36,0,0,0,.61,3.15,6.83,6.83,0,0,0,6.24,4.27H465a6.81,6.81,0,0,0,6.1-4.85,11.12,11.12,0,0,0,.3-1.61,7.29,7.29,0,0,1,.21-1.15,3.19,3.19,0,0,1,4.57-1.52,8.17,8.17,0,0,1,1.85,2.53,18.42,18.42,0,0,0,1.13,1.86c1.72,2.43,5,3.91,7.46,2.16,1.64-1.15,2.29-3.4,1.74-6-.08-.38-.18-.75-.27-1.12a6.39,6.39,0,0,1-.33-2.66c.39-1.81,3.18-2.58,5.59-2.38.62.05,1.25.13,1.89.21Z" class="colorfff svgShape">
        </path>
        <path fill="#313440" d="M26.1,241.75h0L28,235a.2.2,0,0,1,.18-.15l.83-.13a.23.23,0,0,1,.25.19.22.22,0,0,1-.18.24l-.7.11-1.86,6.64a.22.22,0,0,1-.27.15A.22.22,0,0,1,26.1,241.75Z" class="color313440 svgShape">
        </path>
      </svg>
    </g>
  </svg>