<svg xmlns="http://www.w3.org/2000/svg" enable-background="new 0 0 5500 4000" viewBox="0 0 5500 4000" width="550" height="550"><rect width="399.359" height="1940.073" x="2548.152" y="1560.891" fill="#293463" class="color293463 svgShape"></rect><rect width="399.359" height="163.104" x="2548.152" y="2959.643" fill="#212b54" class="color212b54 svgShape"></rect><rect width="399.359" height="163.104" x="2548.152" y="3349.049" fill="#212b54" class="color212b54 svgShape"></rect><path fill="#293463" d="M3556.14 3590.604H1939.523c-40.606 0-61.283-48.785-33.045-77.964l26.963-27.862c45.434-46.949 107.972-73.455 173.305-73.455h1282.171c65.333 0 127.871 26.507 173.305 73.455l26.963 27.862C3617.423 3541.82 3596.746 3590.604 3556.14 3590.604zM4925.552 3041.195H574.448c-34.069 0-61.688-27.619-61.688-61.688V621.867c0-34.069 27.619-61.688 61.688-61.688h4351.104c34.069 0 61.688 27.619 61.688 61.688v2357.64C4987.24 3013.576 4959.621 3041.195 4925.552 3041.195z" class="color293463 svgShape"></path><path fill="#e3effc" d="M4862.279,2835.68H633.383c-31.924,0-57.803-25.879-57.803-57.803V693.373
				c0-31.924,25.879-57.803,57.803-57.803h4228.896c31.924,0,57.803,25.879,57.803,57.803v2084.504
				C4920.083,2809.801,4894.203,2835.68,4862.279,2835.68z" class="colore3effc svgShape"></path></svg>