<svg xmlns="http://www.w3.org/2000/svg" enable-background="new 0 0 2770.85 2100" viewBox="0 0 2770.85 2100" width="550" height="550"><path fill="#eae8e1" d="M372.99,592.66c47.01-38.8,123.24-70.69,162.15-23.77c11.73,14.14,16.87,33.06,29.6,46.31
		c36.06,37.54,98.64,6.33,138.35-27.33c191.1-162,348.85-365.92,563.77-494.67c52.56-31.48,110.19-58.65,171.43-60.32
		c61.24-1.67,126.62,27.6,152.18,83.28c11.39,24.82,14.2,52.71,14.48,80.02c1.36,134.7-54.46,272.05-15.58,401.02
		c6.1,20.23,15.24,40.78,32.37,53.14c38.13,27.5,90.6,1.64,129.9-24.16c169.24-111.12,343.6-225.14,542.06-265.17
		c88.24-17.8,190.7-16.3,254.94,46.76c51.42,50.48,65.16,130.53,50.1,201s-54.96,133.04-98.67,190.32
		c-147.05,192.69-346.65,347.52-455.64,564.03c-15.14,30.07-28.63,62.28-28.18,95.94c0.53,40.4,20.96,77.71,28.59,117.39
		c19.92,103.64-49.25,203.44-126.98,274.83c-86.68,79.6-188.9,142.2-299.2,183.23c-59.99,22.31-124.12,38.43-187.66,30.74
		c-63.54-7.69-126.53-42.89-153.89-100.75c-29.45-62.29-13.32-135.2-3.5-203.41c9.82-68.2,8.64-147.73-43.06-193.28
		c-51.09-45.02-129.28-36.96-194.68-17.98c-228.56,66.33-429.14,232.46-666.89,243.24c-44.93,2.04-91.97-2.26-130.51-25.46
		c-74.36-44.75-94.33-145.07-83.99-231.23c10.34-86.16,43.2-169.28,44.92-256.05c0.39-19.68-1.08-40.23-10.94-57.28
		c-43.55-75.28-151.21-47.16-147.16-165.54c3-87.65,82.62-166.58,133.03-231.61C238.29,743.35,291.16,660.2,372.99,592.66z" class="coloreae8e1 svgShape"></path><path fill="none" stroke="#7a96ed" stroke-linecap="round" stroke-linejoin="round" stroke-miterlimit="10" stroke-width="4.747" d="M1620.76,88.6l-247.07,438.39l222.31,125.29c-4.31-22.37-0.94-46.34,11.31-67.69
			c26.55-46.28,85.87-63.04,132.71-37.49c48.37,26.39,65.67,87.14,38.7,134.98c-11.94,21.18-30.53,36.24-51.67,44.05l180.49,101.72
			l122.53-217.42c3.17,30.99,20.92,59.99,50.27,76.28c46.69,25.91,106.17,9.55,133.03-36.59c27.72-47.62,11.06-108.56-36.79-135.53
			c-29-16.35-62.75-16.42-90.71-3.17l122.53-217.42L1770.01,46.94C1717.29,17.23,1650.47,35.88,1620.76,88.6z" class="colorStroke7a96ed svgStroke"></path><path fill="#ffa95c" d="M2160.07,967.45c30.58-5.91,63.48,2.71,87.55,26.11c38.28,37.22,39.79,98.89,3.36,137.93
			c-37.59,40.29-100.75,41.92-140.38,3.9c-24.02-23.05-33.84-55.34-29.22-85.93l-172.79,180.08l164.99,158.32
			c-26.95-0.49-54.02,9.99-73.93,31.32c-36.25,38.83-34.99,100.12,2.83,137.43c39.23,38.7,102.39,37.73,140.41-1.9
			c19.81-20.65,28.85-47.69,27.27-74.17l180.58,173.28l348.41-363.1c41.9-43.66,40.47-113.02-3.2-154.92l-363.1-348.41
			L2160.07,967.45z" class="colorffa95c svgShape"></path><path fill="#7a96ed" d="M1999.65,1419.16c19.91-21.33,46.98-31.81,73.93-31.32l-164.99-158.32l-187.67,195.58
			c30.58-5.91,63.48,2.71,87.55,26.11c38.28,37.22,39.79,98.89,3.36,137.93c-37.59,40.29-100.75,41.92-140.38,3.9
			c-24.02-23.05-33.84-55.34-29.22-85.93l-157.92,164.57l363.1,348.41c43.66,41.9,113.02,40.47,154.92-3.2l348.41-363.1
			l-180.58-173.28c1.58,26.48-7.46,53.52-27.27,74.17c-38.03,39.63-101.19,40.6-140.41,1.9
			C1964.66,1519.28,1963.4,1457.99,1999.65,1419.16z" class="color7a96ed svgShape"></path><path fill="#6150ff" d="M1678.36,919.19c-17.17,17.63-26.41,40.01-27.8,62.74l-184.13-176.68l-348.41,363.1
			c-41.9,43.66-40.47,113.02,3.2,154.92l363.1,348.41l157.92-164.57c-4.65,30.8,5.33,63.31,29.7,86.39
			c38.77,36.71,100.45,35.68,137.95-2.33c38.7-39.23,37.73-102.39-1.9-140.42c-24.02-23.05-56.69-31.52-87.07-25.65l187.67-195.58
			l-149.49-143.44c22.42-2.31,44.18-12.27,61.01-29.81c38.02-39.63,36.39-102.77-3.89-140.37
			C1777.21,879.5,1715.6,880.97,1678.36,919.19z" class="color6150ff svgShape"></path><path fill="#ffb1a9" d="M1056.12,633.64c0.65,3.82,1.27,7.65,1.89,11.47c2.56,15.8,4.95,31.62,7.35,47.42l0.15,1.03
				c3.16,20.97,9.36,51.75-8.49,67.62c-15.75,14-41.84,19.97-62.33,20.53c-55.51,1.52-108.48-26.45-158.29-47.77
				c-40.75-17.43-82.05-37.15-111.69-70.09c-21.55-23.97-35.85-54-43.19-85.39c-10.01-42.81-4.75-93.61,29.04-121.76
				c42.03-35.01,99.68-41.84,152.26-45.89c40.74-3.14,89.12-5.79,114.43,19.53c22.59,22.59,47.13,67.07,55.66,96.62
				c1.92,6.68,3.73,13.36,5.44,20.09C1052.82,591.19,1102.1,586.56,1056.12,633.64z" class="colorffb1a9 svgShape"></path><path fill="#ea2f2f" d="M1065.35,692.53c-19.09-3.27-38.36-14.98-56.49-34.38l49.14-13.05
				C1060.56,660.91,1062.95,676.73,1065.35,692.53z" class="colorea2f2f svgShape"></path><line x1="1008.86" x2="1060.38" y1="658.15" y2="669.01" fill="none" stroke="#231f20" stroke-linecap="round" stroke-linejoin="round" stroke-miterlimit="10" stroke-width="4.491" class="colorStroke231f20 svgStroke"></line><path fill="#231f20" d="M994.23,523.54c15.26-7.3,26.11-17.45,16.35-28.88c-2.68-3.14-7.07-4.28-11.19-4.31
				c-7.91-0.05-15.4,3.31-22.5,6.8c-9.1,4.47-18.05,9.27-26.82,14.37c-9.87,5.74-16.11,22.27-0.12,23.75
				C956.61,535.87,977.94,531.33,994.23,523.54z" class="color231f20 svgShape"></path><ellipse cx="1002.47" cy="560.81" fill="#231f20" rx="7.07" ry="12.23" transform="rotate(-8.15 1002.421 560.873)" class="color231f20 svgShape"></ellipse><path fill="#ffb1a9" d="M781.58,694.26L703.11,891.1c12.18,54.78,80.83,62.89,190.87,36.78l57.94-168.77L781.58,694.26z" class="colorffb1a9 svgShape"></path><path fill="#c7d7e5" d="M403.17,899.06c12.31,199.63,78.2,412.83,110.37,637.56l495.57,20.97l49.46-163.24
				c109.65-112.07,125.16-125,28.96-255.78l5.67-40.89L982.28,859L801.6,930.79C633.83,859.73,465.64,787.94,403.17,899.06z" class="colorc7d7e5 svgShape"></path><path fill="#ffb1a9" d="M1745.29,824.16l-218.15,38.48l-196.72-310.73l-14.77-23.33l142.39-48.94l13.93,16.65l263.16,314.29
				c3.67,4.37,7.02,8.85,10.08,13.43C1745.24,824.06,1745.26,824.11,1745.29,824.16z" class="colorffb1a9 svgShape"></path><path fill="#ffb1a9" d="M1316.13,530.03c-6.59-17.51-12.67-35.21-18.24-53.06c-4.01-12.87-7.79-26.08-7.43-39.56
				c0.31-11.48,3.61-22.65,7.24-33.54c12.82-38.46,32.14-72.09,49.95-108.14c15.73-31.85,47.73-47.04,79.16-61.83
				c39.65-18.66,79.59-36.71,119.79-54.15c7.2-3.12,14.8-6.3,22.62-5.58c7.82,0.72,15.75,6.76,15.66,14.62
				c7.12-1.33,15.29,3.53,18.87,9.82s2.73,14.82-2.04,20.26c6.32,1.91,8.98,11.37,6.91,17.64s-7.27,10.9-12.3,15.18
				c-25.69,21.82-52.63,42.17-80.64,60.92c28.07,3.43,53.91,8.1,81.17,15.59c7.79,2.14,15.62,4.48,22.6,8.55
				c5.77,3.36,11.37,10.39,7.87,16.07c-0.91,1.48-2.33,2.58-3.76,3.58l-132.35-6.42l-33.19,129.68L1316.13,530.03z" class="colorffb1a9 svgShape"></path><line x1="1584.87" x2="1436.23" y1="188.78" y2="265.03" fill="none" stroke="#231f20" stroke-linecap="round" stroke-linejoin="round" stroke-miterlimit="10" stroke-width="4.491" class="colorStroke231f20 svgStroke"></line><line x1="1601.7" x2="1463.85" y1="218.86" y2="295.88" fill="none" stroke="#231f20" stroke-linecap="round" stroke-linejoin="round" stroke-miterlimit="10" stroke-width="4.491" class="colorStroke231f20 svgStroke"></line><path fill="#c7d7e5" d="M403.17 899.06l-329.2 507.4c-34.96 53.89-41.5 121.42-17.54 181.02l0 0c26.53 65.98 115.61 76.37 156.62 18.27l281.78-399.28L403.17 899.06zM1745.21 824.01c-24.69-51.97-162.56-212.14-255.79-334.59l-17.45 6.87-141.55 55.61-13.33 5.25 210.05 305.49-198.29-1.32c-155.43-40.43-270.68-40.94-346.56-2.31l74.8 238.26 506.73-28.11 76.46-10.94C1752.36 1042.16 1806.19 914.88 1745.21 824.01zM719.86 769.3l224.9 64.42-30.03 93.97c-117.53 60.54-200.28 56.99-236.1-33.09L719.86 769.3z" class="colorc7d7e5 svgShape"></path><path fill="#231f20" d="M1009.12,1557.59l-55.49,88.26l-99.98,159.02l-71.31,113.42l-16.08,132.31H296.65
				c-6.63-83.7,34.28-199.69,96.82-318.38c34.81-66.06,76.32-132.97,120.06-195.6L1009.12,1557.59z" class="color231f20 svgShape"></path><polygon fill="#231f20" points="1009.11 1557.6 986.19 1825.79 393.47 1732.22 513.54 1536.62" class="color231f20 svgShape"></polygon><path fill="#231f20" d="M1099.79,2050.6H721.31l103.54-250.28l85.8-207.43c14.84,15.79,29.19,33.36,42.97,52.95
				c14.66,20.82,28.68,43.91,42,69.55v0.01C1038.44,1797.85,1074,1906.59,1099.79,2050.6z" class="color231f20 svgShape"></path><polygon fill="#c7d7e5" points="121.72 1415 536.5 1324.92 580.66 1502.1 160.45 1640.83" class="colorc7d7e5 svgShape"></polygon><path fill="#231f20" d="M982.29,430.33c-37.53-37.53-163.44-25.6-226.66-6.23c-40.95,10.13-74.83,44.71-84.12,85.86
				c-7.36,32.62-0.08,66.96,12.31,98.01c6.45,16.17,13.88,31.8,21.49,47.36l-0.26,0.03c1.03,1.73,1.97,3.5,2.86,5.28
				c0.28,0.57,0.56,1.15,0.84,1.72c15.48,32.88,8.36,73.86-10.26,105.59c-19.97,34.03-51.13,59.76-81.51,84.94
				c-30.37,25.18-61.28,51.34-80.45,85.83c-20.62,37.11-25.81,82.5-14.09,123.3c11.95,41.61,39.85,76.47,60.04,114.77
				c20.19,38.3,32.33,86.09,11.45,124.01c-5.69,10.33-13.52,19.29-20.3,28.93c-31.19,44.31-38.86,104.24-19.83,154.97l285.53-40.87
				c-19.55-44.66-6.53-95.17,9.97-141.04c16.5-45.87,36.81-92.95,31.38-141.4c-9.54-85.19-93.34-142.38-123.75-222.52
				c-5.46-14.39-9.16-29.62-8.95-45.01c0.58-41.23,28.3-76.37,43.77-114.59c13.98-34.56,17.85-73.08,11.4-109.78
				c7.28-15.51,13.5-31.52,18.5-47.91c3.8-12.46,8.32-26.36,4.65-38.86C894.57,565.15,955.83,518.03,982.29,430.33z" class="color231f20 svgShape"></path><circle cx="798.05" cy="619.21" r="71.95" fill="#ffb1a9" class="colorffb1a9 svgShape"></circle><path fill="none" stroke="#231f20" stroke-linecap="round" stroke-linejoin="round" stroke-miterlimit="10" stroke-width="4.491" d="M744.69,626.85c-4.22-29.47,16.25-56.78,45.72-60.99c29.47-4.22,56.78,16.25,60.99,45.72" class="colorStroke231f20 svgStroke"></path><line x1="1117.63" x2="1019.46" y1="1093.9" y2="1095.67" fill="none" stroke="#0f0e0e" stroke-linecap="round" stroke-linejoin="round" stroke-miterlimit="10" stroke-width="4.747" class="colorStroke0f0e0e svgStroke"></line><line x1="933.8" x2="815.11" y1="881.83" y2="925.43" fill="none" stroke="#0f0e0e" stroke-linecap="round" stroke-linejoin="round" stroke-miterlimit="10" stroke-width="4.747" class="colorStroke0f0e0e svgStroke"></line><line x1="460.29" x2="418.27" y1="1255.4" y2="1033.57" fill="none" stroke="#0f0e0e" stroke-linecap="round" stroke-linejoin="round" stroke-miterlimit="10" stroke-width="4.747" class="colorStroke0f0e0e svgStroke"></line><path fill="none" stroke="#7a96ed" stroke-linecap="round" stroke-linejoin="round" stroke-miterlimit="10" stroke-width="4.747" d="M534.83,2050.6c-24.08-71.39-15.38-154.52,9.2-243.37" class="colorStroke7a96ed svgStroke"></path><polygon fill="#e5837f" points="946.05 776.22 851.95 743.02 931.63 818.22" class="colore5837f svgShape"></polygon><line x1="804.44" x2="827.52" y1="565.68" y2="636.18" fill="none" stroke="#231f20" stroke-linecap="round" stroke-linejoin="round" stroke-miterlimit="10" stroke-width="4.491" class="colorStroke231f20 svgStroke"></line></svg>