<svg width="150" height="150" viewBox="0 0 150 150" fill="none" xmlns="http://www.w3.org/2000/svg">
<circle cx="75" cy="75" r="75" fill="#2D3250" fill-opacity="0.5"/>
<g clip-path="url(#clip0_45_124)">
<path d="M111.425 88.2468L107.986 85.8126L115.288 75.4954L106.118 69.0043L108.552 65.5653C109.896 63.6659 109.446 61.0364 107.547 59.692C105.647 58.3476 103.018 58.7975 101.674 60.6969L99.2393 64.136L90.0686 57.6448L82.766 67.962L86.2051 70.3962C88.1045 71.7406 88.5544 74.3701 87.21 76.2695C85.8656 78.1689 83.2361 78.6188 81.3367 77.2744L77.8976 74.8402L70.595 85.1573L79.7659 91.6485L77.3317 95.0876C75.9872 96.987 76.4371 99.6165 78.3365 100.961C80.236 102.305 82.8654 101.855 84.2099 99.9558L86.6441 96.5167L95.8149 103.008L103.117 92.6907L106.557 95.1249C108.456 96.4694 111.085 96.0195 112.43 94.1201C113.774 92.2207 113.324 89.5912 111.425 88.2468Z" fill="#EA7070"/>
</g>
<g clip-path="url(#clip1_45_124)">
<path d="M75.9466 65.3492L71.7882 64.6709L73.8232 52.1957L62.7342 50.3868L63.4125 46.2285C63.7872 43.9318 62.2292 41.7663 59.9325 41.3917C57.6358 41.017 55.4703 42.5751 55.0957 44.8718L54.4173 49.0302L43.3284 47.2213L41.2933 59.6965L45.4518 60.3748C47.7485 60.7495 49.3065 62.9149 48.9318 65.2116C48.5572 67.5083 46.3918 69.0663 44.0951 68.6917L39.9366 68.0133L37.9016 80.4885L48.9907 82.2974L48.3123 86.4559C47.9377 88.7526 49.4957 90.918 51.7924 91.2926C54.0891 91.6671 56.2545 90.1091 56.6291 87.8124L57.3075 83.6539L68.3965 85.4628L70.4316 72.9877L74.59 73.666C76.8867 74.0407 79.0521 72.4826 79.4268 70.1859C79.8014 67.8892 78.2433 65.7239 75.9466 65.3492Z" fill="#E6BAA3"/>
</g>
<defs>
<clipPath id="clip0_45_124">
<rect width="50.5603" height="50.5603" fill="white" transform="translate(90.3516 47.5211) rotate(35.2912)"/>
</clipPath>
<clipPath id="clip1_45_124">
<rect width="50.5603" height="50.5603" fill="white" transform="translate(39.1406 38) rotate(9.26483)"/>
</clipPath>
</defs>
</svg>
