<svg width="150" height="150" viewBox="0 0 150 150" fill="none" xmlns="http://www.w3.org/2000/svg">
<circle cx="75" cy="75" r="75" fill="#F2D8D8" fill-opacity="0.5"/>
<path fill-rule="evenodd" clip-rule="evenodd" d="M65.8267 44.0263L66.2379 43.8577H108.072L108.486 44.0263L111.971 47.5142L112.139 47.9254V89.7592L111.971 90.1733L108.483 93.6582L108.072 93.8269H86.4167V93.25C86.4194 91.7361 85.8388 90.2793 84.7955 89.1823H107.495V48.5052H66.8177V70.0478C65.2984 69.6723 63.7343 69.509 62.1702 69.5626V47.9254L62.3388 47.5112L65.8267 44.0292V44.0263ZM94.0225 71.9885L85.7126 80.2718C85.4387 79.7635 85.0918 79.2981 84.6831 78.8902L83.4435 77.6477L90.0584 71.0359L79.3906 60.1078L81.7957 57.6435L94.0225 69.8703V71.9885ZM73.4592 83.8425L77.3642 79.9375L80.5 83.0733L75.4117 88.1617L76.0625 88.8125V93.25H80.5V97.5396H76.0625V97.8354C75.8436 99.3113 75.4359 100.753 74.8496 102.125L80.5 107.864L77.3642 111L72.4829 106.119C71.3218 107.601 69.8469 108.807 68.164 109.651C66.4811 110.495 64.6321 110.956 62.75 111C60.8679 110.955 59.0191 110.495 57.3363 109.651C55.6535 108.807 54.1784 107.6 53.0171 106.119L48.1358 111L45 107.864L50.6504 102.125C50.0713 100.781 49.6638 99.3698 49.4375 97.9242V97.6875H45V93.25H49.4375V88.8125L50.0883 88.1617L45 83.0733L48.1358 79.9375L52.0408 83.8425C52.6348 81.4514 54.0118 79.3279 55.9526 77.8102C57.8934 76.2925 60.2863 75.4679 62.75 75.4679C65.2137 75.4679 67.6066 76.2925 69.5474 77.8102C71.4882 79.3279 72.8652 81.4514 73.4592 83.8425ZM67.4567 81.887C66.5258 80.9561 65.3398 80.3222 64.0486 80.0653C62.7574 79.8085 61.419 79.9403 60.2028 80.4441C58.9865 80.9479 57.9469 81.8011 57.2155 82.8957C56.4841 83.9903 56.0937 85.2773 56.0937 86.5937H69.4062C69.4063 85.7196 69.2341 84.8541 68.8996 84.0465C68.5651 83.2389 68.0748 82.5051 67.4567 81.887ZM68.785 103.72C70.404 102.1 71.4082 99.9671 71.625 97.6875V91.0312H53.875V97.6875C54.0917 99.9679 55.0964 102.102 56.7162 103.721C58.3359 105.341 60.4696 106.346 62.75 106.562C65.0307 106.346 67.1647 105.342 68.785 103.722V103.72Z" fill="#545B77"/>
</svg>
