<svg width="150" height="150" viewBox="0 0 150 150" fill="none" xmlns="http://www.w3.org/2000/svg">
<circle cx="75" cy="75" r="75" fill="#DAE5FF"/>
<path d="M88.5093 70.5686C89.3398 71.3992 90.4552 71.8501 91.6338 71.8501C92.8124 71.8501 93.9277 71.3913 94.7583 70.5686L103.942 61.4403C104.773 60.6098 105.231 59.5102 105.231 58.3316C105.231 57.153 104.773 56.0535 103.942 55.2229L94.1967 45.5409C92.5276 43.8877 89.6167 43.8877 87.9477 45.5409L78.7719 54.6692C77.9413 55.4998 77.4825 56.5993 77.4825 57.7779C77.4825 58.9565 77.9413 60.056 78.7719 60.8866L88.5093 70.5686ZM81.4455 57.327L90.6292 48.1987C90.7874 48.0405 90.9772 48.0168 91.0722 48.0168C91.1671 48.0168 91.3569 48.0405 91.5151 48.1987L101.26 57.8887C101.419 58.0469 101.442 58.2367 101.442 58.3316C101.442 58.4266 101.419 58.6164 101.26 58.7746L92.0847 67.9029C91.9265 68.0611 91.7366 68.0849 91.6417 68.0849C91.5468 68.0849 91.3569 68.0611 91.1987 67.9029L81.4455 58.2209C81.2873 58.0627 81.2636 57.8728 81.2636 57.7779C81.2636 57.683 81.2873 57.4852 81.4455 57.327ZM59.0044 80.5434C57.3354 78.8901 54.4165 78.8901 52.7554 80.5434L51.5451 81.7457C50.3349 82.9559 49.0534 85.0996 48.5788 86.737L44.5367 100.556C44.1966 101.711 44.3469 102.787 44.956 103.594C45.5097 104.329 46.3956 104.748 47.3844 104.748C47.7799 104.748 48.1991 104.685 48.6184 104.551L63.0465 100.113C64.676 99.6147 66.8196 98.3254 68.022 97.131L68.7339 96.4269C69.5645 95.5964 70.0232 94.4969 70.0232 93.3183C70.0232 92.1396 69.5645 91.0401 68.7339 90.2096L59.0044 80.5434ZM66.0603 93.7691L65.3483 94.4731C64.589 95.2325 62.9595 96.2055 61.9312 96.5219L53.3012 99.1718L50.0343 95.2562L52.2175 87.797C52.5181 86.7766 53.4752 85.1629 54.2267 84.4193L55.4369 83.217C55.5951 83.0588 55.785 83.0351 55.8799 83.0351C55.9748 83.0351 56.1646 83.0588 56.3229 83.217L66.0523 92.8911C66.2105 93.0493 66.2343 93.2392 66.2343 93.3341C66.2422 93.429 66.2185 93.6188 66.0603 93.7691ZM59.6293 45.5409C57.9603 43.8877 55.0493 43.8877 53.3803 45.5409L43.6429 55.2229C42.8123 56.0535 42.3535 57.153 42.3535 58.3316C42.3535 59.5102 42.8123 60.6098 43.6429 61.4403L87.9556 105.5C88.7861 106.33 89.9015 106.781 91.0801 106.781C92.2587 106.781 93.374 106.323 94.2046 105.5L103.95 95.81C104.78 94.9794 105.239 93.8799 105.239 92.7013C105.239 91.5227 104.78 90.4231 103.95 89.5926L59.6293 45.5409ZM101.26 93.1442L91.523 102.834C91.3648 102.992 91.175 103.016 91.0801 103.016C90.9852 103.016 90.7953 102.992 90.6371 102.834L46.3244 58.7746C46.1662 58.6164 46.1425 58.4266 46.1425 58.3316C46.1425 58.2367 46.1662 58.0469 46.3244 57.8887L56.0618 48.1987C56.22 48.0405 56.4099 48.0168 56.5048 48.0168C56.5997 48.0168 56.7896 48.0405 56.9478 48.1987L58.2687 49.5118L53.7521 54.0127C53.0085 54.7483 53.0085 55.9428 53.7521 56.6784C54.1238 57.0423 54.6063 57.2321 55.0889 57.2321C55.5714 57.2321 56.0618 57.0502 56.4257 56.6784L60.9503 52.1775L63.1493 54.3686L61.1955 56.3145C60.4599 57.0502 60.4599 58.2446 61.1955 58.9803C61.5673 59.3441 62.0498 59.534 62.5323 59.534C63.0148 59.534 63.5053 59.352 63.8691 58.9803L65.8229 57.0344L68.022 59.2255L63.4974 63.7264C62.7538 64.462 62.7538 65.6564 63.4974 66.3921C63.8691 66.756 64.3517 66.9458 64.8342 66.9458C65.3167 66.9458 65.7992 66.7639 66.171 66.3921L70.6956 61.8912L72.9025 64.0823L70.9487 66.0282C70.2131 66.7639 70.2131 67.9583 70.9487 68.6939C71.3205 69.0657 71.803 69.2477 72.2855 69.2477C72.7681 69.2477 73.2585 69.0657 73.6224 68.6939L75.5762 66.748L77.7831 68.9392L73.2585 73.44C72.5229 74.1757 72.5229 75.3701 73.2585 76.1058C73.6303 76.4696 74.1128 76.6595 74.5953 76.6595C75.0778 76.6595 75.5683 76.4775 75.9321 76.1058L80.4567 71.6049L82.6637 73.796L80.7099 75.7419C79.9742 76.4775 79.9742 77.672 80.7099 78.4076C81.0816 78.7794 81.5642 78.9613 82.0467 78.9613C82.5292 78.9613 83.0196 78.7794 83.3835 78.4076L85.3373 76.4617L87.5363 78.6528L83.0117 83.1537C82.2682 83.8894 82.2682 85.0838 83.0117 85.8194C83.3835 86.1912 83.866 86.3731 84.3485 86.3731C84.8311 86.3731 85.3136 86.1912 85.6854 85.8194L90.21 81.3185L92.409 83.5097L90.4552 85.4556C89.7195 86.1912 89.7195 87.3856 90.4552 88.1213C90.827 88.4852 91.3095 88.675 91.792 88.675C92.2745 88.675 92.7649 88.4931 93.1288 88.1213L95.0826 86.1754L97.2896 88.3665L92.7649 92.8674C92.0214 93.603 92.0214 94.7975 92.7649 95.5331C93.1367 95.897 93.6192 96.0868 94.1018 96.0868C94.5843 96.0868 95.0747 95.9049 95.4386 95.5331L99.9632 91.0322L101.221 92.2899C101.379 92.4481 101.403 92.638 101.403 92.7329C101.403 92.8278 101.419 92.986 101.26 93.1442Z" fill="#578DD8"/>
</svg>
