<svg width="1000" height="1000" viewBox="0 0 1000 1000" fill="none" xmlns="http://www.w3.org/2000/svg">
<rect width="1000" height="1000" rx="23" fill="#F0D8D8" fill-opacity="0.5"/>
<path d="M903.3 500C903.3 724.518 720.376 903.3 500 903.3C279.646 903.3 96.7002 724.518 96.7002 500C96.7002 275.482 275.482 96.7 500 96.7C724.518 96.7 903.3 275.482 903.3 500Z" fill="#B6C9D6"/>
<path d="M787.128 483.432C787.128 533.703 761.164 603.55 718.502 638.256C684.014 666.356 638.452 675.207 586.96 677.997C606.319 689.747 619.203 711.024 619.203 735.309V901.774C586.742 909.84 552.952 914.2 518.138 914.2C483.65 914.2 449.969 909.949 417.727 901.883V792.512C403.731 796.872 385.376 799.445 361.745 798.224C283.374 794.082 272.19 746.514 259.655 712.921C247.011 679.327 207.815 675.076 213.417 661.211C240.471 651.924 261.704 660.775 276.071 671.719C287.472 680.395 295.407 692.668 300.726 705.966C306.809 721.161 322.962 746.514 363.074 746.514C391.393 746.514 408.179 739.909 417.814 733.413C418.381 709.672 431.352 689.093 450.383 677.779C395.753 674.313 347.836 664.001 312.586 633.329C273.411 599.299 249.78 531.348 249.78 483.432C249.78 443.473 266.239 394.205 294.448 363.205C295.342 362.311 296.127 361.308 297.238 360.415C290.742 340.925 283.243 302.427 301.489 255.295C355.771 254.292 398.652 283.962 416.114 298.285C447.68 291.003 482.168 287.537 518.443 287.537C555.612 287.537 591.102 290.785 623.214 298.285C640.676 283.962 683.665 254.292 737.838 255.404C756.87 304.432 748.019 344.174 741.413 362.769C770.342 395.992 787.128 443.124 787.128 483.432Z" fill="white"/>
<path d="M500 914.2C271.601 914.2 85.7998 728.399 85.7998 500C85.7998 267.743 267.743 85.8 500 85.8C732.257 85.8 914.2 267.743 914.2 500C914.2 728.399 728.398 914.2 500 914.2ZM500 107.6C279.972 107.6 107.6 279.973 107.6 500C107.6 716.365 283.635 892.4 500 892.4C716.365 892.4 892.4 716.365 892.4 500C892.4 279.973 720.027 107.6 500 107.6Z" fill="#788B9C"/>
</svg>
