<svg width="1000" height="1000" viewBox="0 0 1000 1000" fill="none" xmlns="http://www.w3.org/2000/svg">
<rect width="1000" height="1000" rx="23" fill="white" fill-opacity="0.4"/>
<path d="M876.25 499.5C899.308 499.5 918.216 480.762 915.914 457.819C911.848 417.291 901.864 377.499 886.22 339.73C865.238 289.076 834.486 243.051 795.717 204.283C756.949 165.514 710.924 134.762 660.27 113.78C622.501 98.1356 582.709 88.1522 542.181 84.0858C519.238 81.7838 500.5 100.692 500.5 123.75C500.5 146.808 519.264 165.231 542.142 168.106C571.695 171.82 600.682 179.478 628.316 190.924C668.839 207.709 705.659 232.312 736.674 263.326C767.688 294.341 792.291 331.161 809.076 371.684C820.522 399.318 828.18 428.305 831.894 457.858C834.769 480.736 853.192 499.5 876.25 499.5Z" fill="url(#paint0_linear_38_143)"/>
<path d="M124.75 499.5C101.692 499.5 82.7838 480.762 85.0858 457.819C89.1522 417.291 99.1356 377.499 114.78 339.73C135.762 289.076 166.514 243.051 205.283 204.283C244.051 165.514 290.076 134.762 340.73 113.78C378.499 98.1356 418.291 88.1522 458.819 84.0858C481.762 81.7838 500.5 100.692 500.5 123.75C500.5 146.808 481.736 165.231 458.858 168.106C429.305 171.82 400.318 179.478 372.684 190.924C332.161 207.709 295.341 232.312 264.326 263.326C233.312 294.341 208.709 331.161 191.924 371.684C180.478 399.318 172.82 428.305 169.106 457.858C166.231 480.736 147.808 499.5 124.75 499.5Z" fill="url(#paint1_linear_38_143)"/>
<path d="M876.25 499.5C899.308 499.5 918.216 518.238 915.914 541.181C911.848 581.709 901.864 621.501 886.22 659.27C865.238 709.924 834.486 755.949 795.717 794.717C756.949 833.486 710.924 864.238 660.27 885.22C622.501 900.864 582.709 910.848 542.181 914.914C519.238 917.216 500.5 898.308 500.5 875.25C500.5 852.192 519.264 833.769 542.142 830.894C571.695 827.18 600.682 819.522 628.316 808.076C668.839 791.291 705.659 766.688 736.674 735.674C767.688 704.659 792.291 667.839 809.076 627.316C820.522 599.682 828.18 570.695 831.894 541.142C834.769 518.264 853.192 499.5 876.25 499.5Z" fill="url(#paint2_linear_38_143)"/>
<path d="M124.75 499.5C101.692 499.5 82.7838 518.238 85.0858 541.181C89.1522 581.709 99.1356 621.501 114.78 659.27C135.762 709.924 166.514 755.949 205.283 794.717C244.051 833.486 290.076 864.238 340.73 885.22C378.499 900.864 418.291 910.848 458.819 914.914C481.762 917.216 500.5 898.308 500.5 875.25C500.5 852.192 481.736 833.769 458.858 830.894C429.305 827.18 400.318 819.522 372.684 808.076C332.161 791.291 295.341 766.688 264.326 735.674C233.312 704.659 208.709 667.839 191.924 627.316C180.478 599.682 172.82 570.695 169.106 541.142C166.231 518.264 147.808 499.5 124.75 499.5Z" fill="url(#paint3_linear_38_143)"/>
<path d="M654.938 312H346.062C333.928 312 324 321.926 324 334.059V400.235C324 412.368 333.928 422.294 346.062 422.294H654.938C667.072 422.294 677 412.368 677 400.235V334.059C677 321.926 667.072 312 654.938 312ZM654.938 444.353H346.062C333.928 444.353 324 454.279 324 466.412V532.588C324 544.721 333.928 554.647 346.062 554.647H654.938C667.072 554.647 677 544.721 677 532.588V466.412C677 454.279 667.072 444.353 654.938 444.353ZM654.938 576.706H346.062C333.928 576.706 324 586.632 324 598.765V664.941C324 677.074 333.928 687 346.062 687H654.938C667.072 687 677 677.074 677 664.941V598.765C677 586.632 667.072 576.706 654.938 576.706Z" fill="#D1C4E9"/>
<defs>
<linearGradient id="paint0_linear_38_143" x1="876.569" y1="502.687" x2="503.687" y2="113.87" gradientUnits="userSpaceOnUse">
<stop stop-color="#AAD9BB"/>
<stop offset="1" stop-color="#D9D9D9" stop-opacity="0"/>
</linearGradient>
<linearGradient id="paint1_linear_38_143" x1="503.687" y1="123.431" x2="118.057" y2="502.687" gradientUnits="userSpaceOnUse">
<stop stop-color="#AAD9BB"/>
<stop offset="1" stop-color="#D9D9D9" stop-opacity="0"/>
</linearGradient>
<linearGradient id="paint2_linear_38_143" x1="503.687" y1="872.382" x2="879.756" y2="502.687" gradientUnits="userSpaceOnUse">
<stop stop-color="#AAD9BB"/>
<stop offset="1" stop-color="#D9D9D9" stop-opacity="0"/>
</linearGradient>
<linearGradient id="paint3_linear_38_143" x1="127.618" y1="502.687" x2="503.687" y2="875.569" gradientUnits="userSpaceOnUse">
<stop stop-color="#AAD9BB"/>
<stop offset="1" stop-color="#D9D9D9" stop-opacity="0"/>
</linearGradient>
</defs>
</svg>
