<svg width="1000" height="1000" viewBox="0 0 1000 1000" fill="none" xmlns="http://www.w3.org/2000/svg">
<rect width="1000" height="1000" rx="23" fill="#ECFBEB" fill-opacity="0.45"/>
<rect x="143" y="452" width="405" height="365" rx="27" fill="#C0DDDE"/>
<rect x="249" y="365" width="405" height="365" rx="27" fill="#B4D7D7"/>
<path fill-rule="evenodd" clip-rule="evenodd" d="M621 270H373C358.088 270 346 282.088 346 297V608C346 622.912 358.088 635 373 635H724C738.912 635 751 622.912 751 608V430H621V270Z" fill="#A7D0D0"/>
<rect x="452" y="182" width="405" height="365" rx="27" fill="#A7D0D0" fill-opacity="0.5"/>
<path fill-rule="evenodd" clip-rule="evenodd" d="M753.291 312.339C756.947 319.779 759 328.15 759 337C759 367.928 733.928 393 703 393C672.072 393 647 367.928 647 337C647 306.072 672.072 281 703 281C711.188 281 718.965 282.757 725.975 285.915L827.094 184.796C828.184 183.706 829.372 182.777 830.631 182.007C830.422 182.002 830.211 182 830 182H479C464.088 182 452 194.088 452 209V520C452 534.912 464.088 547 479 547H830C844.912 547 857 534.912 857 520V209C857 208.584 856.991 208.171 856.972 207.76C856.162 209.156 855.159 210.471 853.964 211.666L753.291 312.339Z" fill="#8DC3C3"/>
</svg>
