<svg width="150" height="150" viewBox="0 0 150 150" fill="none" xmlns="http://www.w3.org/2000/svg">
<circle cx="75" cy="75" r="75" fill="#ECFBEB" fill-opacity="0.5"/>
<g clip-path="url(#clip0_45_103)">
<path d="M55.6214 90.1825C54.9489 90.855 54.4053 92.1692 54.4053 93.1187V105.486H61.5852V85.9388C61.5852 84.9893 61.0415 84.7622 60.369 85.4347L55.6214 90.1825Z" fill="#7286D3"/>
<path d="M87.1585 78.465C86.4877 79.1375 85.9424 80.4518 85.9424 81.403V105.488H93.1223V74.2145C93.1223 73.2649 92.5786 73.0396 91.9061 73.7121L87.1585 78.465Z" fill="#7286D3"/>
<path d="M97.6685 67.9395C96.996 68.6103 96.4507 69.9244 96.4507 70.8739V105.486H103.127V64.2104C103.127 63.2609 102.581 63.0338 101.909 63.7063L97.6685 67.9395Z" fill="#7286D3"/>
<path d="M76.858 88.7635C76.858 88.7635 76.538 89.0851 76.1425 89.4808C75.7487 89.8766 75.4287 90.9687 75.4287 91.9182V105.487H82.6086V84.7383C82.6086 83.7888 82.0633 83.5617 81.3908 84.2343L76.858 88.7635Z" fill="#7286D3"/>
<path d="M66.1348 85.115C65.4623 84.4442 64.917 84.6695 64.917 85.6191V105.487H72.0969V92.7833C72.0969 91.8338 71.5808 90.5488 70.9427 89.9142L69.7886 88.7651L66.1348 85.115Z" fill="#7286D3"/>
<path d="M46.5854 99.2236L44.2667 101.546C43.5959 102.218 43.0522 103.373 43.0522 104.126V105.488H51.0663V96.4559C51.0663 95.5063 50.5227 95.281 49.8502 95.9535L46.5854 99.2236Z" fill="#7286D3"/>
<path d="M111.784 63.8955C112.455 64.568 113 64.3409 113 63.3914V38.8125C113 37.0527 111.314 35.5115 109.565 35.5115H85.1285C84.179 35.5115 83.952 36.0569 84.6245 36.7294L93.3163 45.428L89.7712 48.9578L73.3284 65.4159L64.6315 56.7209C63.959 56.0484 62.8717 56.0501 62.1992 56.7209L38.0143 80.9231C35.3274 83.6117 35.3291 87.9688 38.016 90.6555L38.1847 90.8258C40.8715 93.5127 45.2287 93.5127 47.9137 90.8242L63.4139 75.3155L72.1108 84.0038C72.7833 84.6746 73.8723 84.6746 74.5448 84.0038L103.214 55.3293L111.784 63.8955Z" fill="#7286D3"/>
</g>
<defs>
<clipPath id="clip0_45_103">
<rect width="77" height="77" fill="white" transform="translate(36 32)"/>
</clipPath>
</defs>
</svg>
